<svg width="623px" height="1424px"
 viewBox="0.00 0.00 623.42 1424.20" xmlns="http://www.w3.org/2000/svg" xmlns:xlink="http://www.w3.org/1999/xlink">
<g id="graph0" class="graph" transform="scale(1.0 1.0) rotate(0.0) translate(4.0 1420.2)">
<title>0</title>
<polygon fill="white" stroke="transparent" points="-4,4 -4,-1420.2 619.42,-1420.2 619.42,4 -4,4"/>
<g id="clust1" class="cluster">
<title>cluster_12</title>
<polygon fill="none" stroke="black" points="83,-592.13 83,-997.35 559,-997.35 559,-592.13 83,-592.13"/>
</g>
<g id="clust2" class="cluster">
<title>cluster_15</title>
<polygon fill="none" stroke="black" points="58,-98.71 58,-572.13 554,-572.13 554,-98.71 58,-98.71"/>
</g>
<!-- 1 -->
<g id="node1" class="node">
<title>1</title>
<ellipse fill="none" stroke="black" cx="321" cy="-1380.84" rx="139.1" ry="35.21"/>
<text text-anchor="start" x="230.5" y="-1391.64" font-family="Times,serif" font-weight="bold" font-size="14.00">FileRead#read#&lt;init&gt;</text>
<text text-anchor="start" x="290.5" y="-1363.64" font-family="Times,serif" font-size="14.00">File#file</text>
</g>
<!-- 2 -->
<g id="node2" class="node">
<title>2</title>
<ellipse fill="none" stroke="black" cx="321" cy="-1274.13" rx="127.06" ry="35.21"/>
<text text-anchor="start" x="239" y="-1284.93" font-family="Times,serif" font-weight="bold" font-size="14.00">StringBuffer#&lt;init&gt;</text>
<text text-anchor="start" x="248.5" y="-1256.93" font-family="Times,serif" font-size="14.00">StringBuffer#strbuf</text>
</g>
<!-- 1&#45;&gt;2 -->
<g id="edge1" class="edge">
<title>1&#45;&gt;2</title>
<path fill="none" stroke="black" d="M321,-1345.26C321,-1337.13 321,-1328.35 321,-1319.85"/>
<polygon fill="black" stroke="black" points="324.5,-1319.67 321,-1309.67 317.5,-1319.67 324.5,-1319.67"/>
</g>
<!-- 3 -->
<g id="node3" class="node">
<title>3</title>
<ellipse fill="none" stroke="black" cx="321" cy="-1167.42" rx="117.26" ry="35.21"/>
<text text-anchor="start" x="246" y="-1178.22" font-family="Times,serif" font-weight="bold" font-size="14.00">FileReader#&lt;init&gt;</text>
<text text-anchor="start" x="265" y="-1150.22" font-family="Times,serif" font-size="14.00">java.io.File#file</text>
</g>
<!-- 2&#45;&gt;3 -->
<g id="edge2" class="edge">
<title>2&#45;&gt;3</title>
<path fill="none" stroke="black" d="M321,-1238.55C321,-1230.42 321,-1221.64 321,-1213.14"/>
<polygon fill="black" stroke="black" points="324.5,-1212.96 321,-1202.96 317.5,-1212.96 324.5,-1212.96"/>
</g>
<!-- 4 -->
<g id="node4" class="node">
<title>4</title>
<ellipse fill="none" stroke="black" cx="321" cy="-1060.71" rx="145.83" ry="35.21"/>
<text text-anchor="start" x="226" y="-1071.51" font-family="Times,serif" font-weight="bold" font-size="14.00">BufferedReader#&lt;init&gt;</text>
<text text-anchor="start" x="251.5" y="-1043.51" font-family="Times,serif" font-size="14.00">BufferedReader#in</text>
</g>
<!-- 3&#45;&gt;4 -->
<g id="edge3" class="edge">
<title>3&#45;&gt;4</title>
<path fill="none" stroke="black" d="M321,-1131.84C321,-1123.71 321,-1114.93 321,-1106.42"/>
<polygon fill="black" stroke="black" points="324.5,-1106.25 321,-1096.25 317.5,-1106.25 324.5,-1106.25"/>
</g>
<!-- 5 -->
<g id="node5" class="node">
<title>5</title>
<ellipse fill="none" stroke="black" cx="321" cy="-954" rx="158.28" ry="35.21"/>
<text text-anchor="start" x="217" y="-964.8" font-family="Times,serif" font-weight="bold" font-size="14.00">BufferedReader#readLine</text>
<text text-anchor="start" x="226" y="-936.8" font-family="Times,serif" font-size="14.00">java.io.BufferedReader#in</text>
</g>
<!-- 4&#45;&gt;5 -->
<g id="edge4" class="edge">
<title>4&#45;&gt;5</title>
<path fill="none" stroke="black" d="M321,-1025.13C321,-1017 321,-1008.22 321,-999.71"/>
<polygon fill="black" stroke="black" points="324.5,-999.54 321,-989.54 317.5,-999.54 324.5,-999.54"/>
</g>
<!-- 6 -->
<g id="node6" class="node">
<title>6</title>
<polygon fill="none" stroke="black" points="321,-882.64 91,-804.64 321,-726.64 551,-804.64 321,-882.64"/>
<text text-anchor="start" x="299.5" y="-829.44" font-family="Times,serif" font-weight="bold" font-size="14.00">while</text>
<text text-anchor="start" x="226" y="-801.44" font-family="Times,serif" font-size="14.00">java.io.BufferedReader#in</text>
<text text-anchor="start" x="214" y="-787.44" font-family="Times,serif" font-size="14.00">java.lang.StringBuffer#strbuf</text>
<text text-anchor="start" x="247.5" y="-773.44" font-family="Times,serif" font-size="14.00">java.lang.String#str</text>
</g>
<!-- 5&#45;&gt;6 -->
<g id="edge5" class="edge">
<title>5&#45;&gt;6</title>
<path fill="none" stroke="black" d="M315.18,-918.45C314.73,-909.93 314.45,-900.42 314.32,-890.64"/>
<polygon fill="black" stroke="black" points="317.82,-890.35 314.25,-880.38 310.82,-890.4 317.82,-890.35"/>
</g>
<!-- 5&#45;&gt;6 -->
<g id="edge7" class="edge">
<title>5&#45;&gt;6</title>
<path fill="none" stroke="black" d="M326.82,-918.45C327.27,-909.93 327.55,-900.42 327.68,-890.64"/>
<polygon fill="black" stroke="black" points="331.18,-890.4 327.75,-880.38 324.18,-890.35 331.18,-890.4"/>
</g>
<!-- 7 -->
<g id="node7" class="node">
<title>7</title>
<ellipse fill="none" stroke="black" cx="383" cy="-35.36" rx="145.83" ry="35.21"/>
<text text-anchor="start" x="294" y="-46.16" font-family="Times,serif" font-weight="bold" font-size="14.00">BufferedReader#close</text>
<text text-anchor="start" x="288" y="-18.16" font-family="Times,serif" font-size="14.00">java.io.BufferedReader#in</text>
</g>
<!-- 5&#45;&gt;7 -->
<g id="edge6" class="edge">
<title>5&#45;&gt;7</title>
<path fill="none" stroke="black" d="M461.77,-937.65C498.1,-927.3 534.19,-910.32 560,-882.64 633.33,-804.02 612,-753.9 612,-646.39 612,-646.39 612,-646.39 612,-213.07 612,-156.86 599.66,-136.44 558,-98.71 541.24,-83.53 520.53,-71.98 499.29,-63.23"/>
<polygon fill="black" stroke="black" points="500.43,-59.91 489.84,-59.52 497.87,-66.43 500.43,-59.91"/>
</g>
<!-- 6&#45;&gt;7 -->
<g id="edge9" class="edge">
<title>6&#45;&gt;7</title>
<path fill="none" stroke="black" d="M203.9,-766.34C161.68,-748.53 116.09,-723.73 82,-690.64 24.42,-634.75 0,-610.03 0,-529.78 0,-529.78 0,-529.78 0,-213.07 0,-156.86 9.54,-133.1 54,-98.71 83.21,-76.11 164.45,-60.59 238.89,-50.68"/>
<polygon fill="black" stroke="black" points="239.41,-54.14 248.87,-49.38 238.51,-47.2 239.41,-54.14"/>
</g>
<!-- 8 -->
<g id="node8" class="node">
<title>8</title>
<polygon fill="none" stroke="black" points="296,-457.42 66,-407.42 296,-357.42 526,-407.42 296,-457.42"/>
<text text-anchor="start" x="290" y="-418.22" font-family="Times,serif" font-weight="bold" font-size="14.00">if</text>
<text text-anchor="start" x="189" y="-390.22" font-family="Times,serif" font-size="14.00">java.lang.StringBuffer#strbuf</text>
</g>
<!-- 6&#45;&gt;8 -->
<g id="edge8" class="edge">
<title>6&#45;&gt;8</title>
<path fill="none" stroke="black" d="M395.35,-751.58C414.97,-734.35 434.22,-713.62 447,-690.64 489.84,-613.61 514.52,-568.3 468,-493.42 453.36,-469.86 430.05,-452.63 405.25,-440.11"/>
<polygon fill="black" stroke="black" points="406.59,-436.88 396.06,-435.71 403.57,-443.19 406.59,-436.88"/>
</g>
<!-- 9 -->
<g id="node9" class="node">
<title>9</title>
<ellipse fill="none" stroke="black" cx="383" cy="-214.07" rx="162.77" ry="35.21"/>
<text text-anchor="start" x="294" y="-224.87" font-family="Times,serif" font-weight="bold" font-size="14.00">StringBuffer#toString</text>
<text text-anchor="start" x="276" y="-196.87" font-family="Times,serif" font-size="14.00">java.lang.StringBuffer#strbuf</text>
</g>
<!-- 6&#45;&gt;9 -->
<g id="edge10" class="edge">
<title>6&#45;&gt;9</title>
<path fill="none" stroke="black" d="M408.42,-756.02C481.55,-709.09 574,-629.95 574,-529.78 574,-529.78 574,-529.78 574,-406.42 574,-350.79 578.11,-327.74 542,-285.42 528.13,-269.17 509.77,-256.52 490.47,-246.73"/>
<polygon fill="black" stroke="black" points="491.77,-243.47 481.24,-242.29 488.74,-249.78 491.77,-243.47"/>
</g>
<!-- 10 -->
<g id="node10" class="node">
<title>10</title>
<ellipse fill="none" stroke="black" cx="296" cy="-528.78" rx="162.77" ry="35.21"/>
<text text-anchor="start" x="214" y="-539.58" font-family="Times,serif" font-weight="bold" font-size="14.00">StringBuffer#length</text>
<text text-anchor="start" x="189" y="-511.58" font-family="Times,serif" font-size="14.00">java.lang.StringBuffer#strbuf</text>
</g>
<!-- 6&#45;&gt;10 -->
<g id="edge11" class="edge">
<title>6&#45;&gt;10</title>
<path fill="none" stroke="black" d="M387,-748.98C402.79,-732.09 417.53,-712.2 426,-690.64 442.01,-649.89 449.32,-629.19 426,-592.13 418.7,-580.54 408.59,-571.05 397.19,-563.31"/>
<polygon fill="black" stroke="black" points="399.02,-560.32 388.69,-557.96 395.29,-566.25 399.02,-560.32"/>
</g>
<!-- 11 -->
<g id="node11" class="node">
<title>11</title>
<ellipse fill="none" stroke="black" cx="254" cy="-645.39" rx="162.77" ry="45.01"/>
<text text-anchor="start" x="169" y="-663.19" font-family="Times,serif" font-weight="bold" font-size="14.00">StringBuffer#append</text>
<text text-anchor="start" x="147" y="-635.19" font-family="Times,serif" font-size="14.00">java.lang.StringBuffer#strbuf</text>
<text text-anchor="start" x="180.5" y="-621.19" font-family="Times,serif" font-size="14.00">java.lang.String#str</text>
</g>
<!-- 6&#45;&gt;11 -->
<g id="edge12" class="edge">
<title>6&#45;&gt;11</title>
<path fill="none" stroke="black" d="M292.2,-736.04C287.1,-724.07 281.85,-711.76 276.94,-700.24"/>
<polygon fill="black" stroke="black" points="280.05,-698.59 272.91,-690.77 273.61,-701.34 280.05,-698.59"/>
</g>
<!-- 8&#45;&gt;9 -->
<g id="edge14" class="edge">
<title>8&#45;&gt;9</title>
<path fill="none" stroke="black" d="M258.55,-365.5C241.16,-341.37 227.41,-310.7 243,-285.42 252.52,-269.99 266.57,-257.82 282.15,-248.27"/>
<polygon fill="black" stroke="black" points="284.01,-251.24 290.94,-243.22 280.53,-245.16 284.01,-251.24"/>
</g>
<!-- 13 -->
<g id="node12" class="node">
<title>13</title>
<ellipse fill="none" stroke="black" cx="387" cy="-303.42" rx="134.58" ry="18"/>
<text text-anchor="start" x="291.5" y="-300.72" font-family="Times,serif" font-weight="bold" font-size="14.00">java.io.PrintStream#out</text>
</g>
<!-- 8&#45;&gt;13 -->
<g id="edge13" class="edge">
<title>8&#45;&gt;13</title>
<path fill="none" stroke="black" d="M332.75,-365.23C343.71,-352.95 355.36,-339.88 365.06,-329.02"/>
<polygon fill="black" stroke="black" points="367.68,-331.33 371.73,-321.54 362.46,-326.67 367.68,-331.33"/>
</g>
<!-- 14 -->
<g id="node13" class="node">
<title>14</title>
<ellipse fill="none" stroke="black" cx="383" cy="-124.71" rx="118.08" ry="18"/>
<text text-anchor="start" x="300" y="-122.01" font-family="Times,serif" font-weight="bold" font-size="14.00">PrintStream#println</text>
</g>
<!-- 9&#45;&gt;14 -->
<g id="edge15" class="edge">
<title>9&#45;&gt;14</title>
<path fill="none" stroke="black" d="M383,-178.54C383,-170.05 383,-161.08 383,-152.99"/>
<polygon fill="black" stroke="black" points="386.5,-152.97 383,-142.97 379.5,-152.97 386.5,-152.97"/>
</g>
<!-- 10&#45;&gt;8 -->
<g id="edge16" class="edge">
<title>10&#45;&gt;8</title>
<path fill="none" stroke="black" d="M289.81,-493.25C289.41,-484.85 289.23,-475.63 289.25,-466.47"/>
<polygon fill="black" stroke="black" points="292.76,-466.22 289.37,-456.18 285.76,-466.14 292.76,-466.22"/>
</g>
<!-- 10&#45;&gt;8 -->
<g id="edge17" class="edge">
<title>10&#45;&gt;8</title>
<path fill="none" stroke="black" d="M302.19,-493.25C302.59,-484.85 302.77,-475.63 302.75,-466.47"/>
<polygon fill="black" stroke="black" points="306.24,-466.14 302.63,-456.18 299.24,-466.22 306.24,-466.14"/>
</g>
<!-- 10&#45;&gt;9 -->
<g id="edge18" class="edge">
<title>10&#45;&gt;9</title>
<path fill="none" stroke="black" d="M419.1,-505.61C469.71,-493.77 520.01,-477.47 535,-457.42 557.9,-426.81 552.31,-317.16 531,-285.42 520.33,-269.53 505.05,-257.13 488.32,-247.49"/>
<polygon fill="black" stroke="black" points="489.91,-244.37 479.45,-242.7 486.58,-250.53 489.91,-244.37"/>
</g>
<!-- 11&#45;&gt;8 -->
<g id="edge19" class="edge">
<title>11&#45;&gt;8</title>
<path fill="none" stroke="black" d="M159.75,-608.34C145.47,-598.74 132.64,-586.82 124,-572.13 106.26,-541.98 105.54,-523.14 124,-493.42 138.64,-469.86 161.95,-452.63 186.75,-440.11"/>
<polygon fill="black" stroke="black" points="188.43,-443.19 195.94,-435.71 185.41,-436.88 188.43,-443.19"/>
</g>
<!-- 11&#45;&gt;9 -->
<g id="edge20" class="edge">
<title>11&#45;&gt;9</title>
<path fill="none" stroke="black" d="M156.14,-608.98C137.85,-599.12 120.09,-586.95 106,-572.13 38.56,-501.2 3.4,-439.32 57,-357.42 98.83,-293.51 176.34,-258.13 245.28,-238.62"/>
<polygon fill="black" stroke="black" points="246.23,-241.99 254.95,-235.97 244.38,-235.24 246.23,-241.99"/>
</g>
<!-- 11&#45;&gt;10 -->
<g id="edge21" class="edge">
<title>11&#45;&gt;10</title>
<path fill="none" stroke="black" d="M270.24,-600.08C273.39,-591.47 276.7,-582.45 279.85,-573.86"/>
<polygon fill="black" stroke="black" points="283.17,-574.97 283.32,-564.37 276.59,-572.56 283.17,-574.97"/>
</g>
<!-- 13&#45;&gt;9 -->
<g id="edge22" class="edge">
<title>13&#45;&gt;9</title>
<path fill="none" stroke="black" d="M386.21,-285.16C385.87,-277.79 385.46,-268.82 385.05,-259.78"/>
<polygon fill="black" stroke="black" points="388.54,-259.46 384.58,-249.63 381.54,-259.78 388.54,-259.46"/>
</g>
<!-- 14&#45;&gt;7 -->
<g id="edge23" class="edge">
<title>14&#45;&gt;7</title>
<path fill="none" stroke="black" d="M383,-106.45C383,-99.08 383,-90.1 383,-81.07"/>
<polygon fill="black" stroke="black" points="386.5,-80.92 383,-70.92 379.5,-80.92 386.5,-80.92"/>
</g>
</g>
</svg>
